# xmcd
#
# Track frame offsets:
#	150
#	19633
#	39696
#	59192
#	79356
#	97644
#	117974
#	138465
#
# Disc length: 2261 seconds
# Revision: 1
# Processed by: cddbd v1.5.2PL0 Copyright (c) Steve Scherf et al.
# Submitted via: dBpowerAMP V12.0
#
DISCID=6808d308
DTITLE=Kara Grainger - L.A. Blues
DYEAR=2011
DGENRE=Blues
TTITLE0=C'mon Into My Kitchen
TTITLE1=Dust My Broom
TTITLE2=Voodoo Woman
TTITLE3=Babe What You Want Me To Do
TTITLE4=I'll Make Love To You Anytime
TTITLE5=Holding On
TTITLE6=Sky is Falling
TTITLE7=Come To Mama
EXTD=
EXTT0=
EXTT1=
EXTT2=
EXTT3=
EXTT4=
EXTT5=
EXTT6=
EXTT7=
PLAYORDER=
